# xmcd
#
# Track frame offsets:
#	150
#	14230
#	28225
#	43612
#	56255
#	66980
#	76377
#	87142
#	96450
#	111207
#	121172
#	135202
#	152370
#	167205
#	181150
#	194797
#	208042
#	220735
#	233985
#	249767
#
# Disc length: 3536 seconds
#
# Revision: 1
# Processed by: cddbd v1.5.2PL0 Copyright (c) Steve Scherf et al.
# Submitted via: audiograbber 1.83.01
#
DISCID=120dce14
DTITLE=Edith Piaf - Edith Piaf "Il risveglio dei ricordi"
DYEAR=1900
DGENRE=Vocal
TTITLE0=La vie en rose
TTITLE1=Mea culpa
TTITLE2=Sous le ciel de Paris
TTITLE3=Retour
TTITLE4=Enfin le printemps
TTITLE5=L'homme au piano
TTITLE6=Avec ce soleil
TTITLE7=La goualante du pauvre jean
TTITLE8=L'effet que tu me fais
TTITLE9=Johnny, tu n'es pas un ange
TTITLE10=Bravo pour le clown
TTITLE11=Soeur Anne
TTITLE12=Padam... Padam
TTITLE13=Notre-Dame De Paris
TTITLE14=Monsieur et madame
TTITLE15=La rue Aux Chanson
TTITLE16=Je T'ai dans la peau
TTITLE17=Au bal de la chance
TTITLE18=Autumn leaves
TTITLE19=Hymne a l'amour
EXTD=
EXTT0=
EXTT1=
EXTT2=
EXTT3=
EXTT4=
EXTT5=
EXTT6=
EXTT7=
EXTT8=
EXTT9=
EXTT10=
EXTT11=
EXTT12=
EXTT13=
EXTT14=
EXTT15=
EXTT16=
EXTT17=
EXTT18=
EXTT19=
PLAYORDER=
